<?xml version="1.0" encoding="utf-8"?>
<!-- Svg Vector Icons : http://www.onlinewebfonts.com/icon -->
<!DOCTYPE svg PUBLIC "-//W3C//DTD SVG 1.1//EN" "http://www.w3.org/Graphics/SVG/1.1/DTD/svg11.dtd">
<svg version="1.1" xmlns="http://www.w3.org/2000/svg" xmlns:xlink="http://www.w3.org/1999/xlink" x="0px" y="0px" viewBox="0 0 1000 1000" enable-background="new 0 0 1000 1000" xml:space="preserve">
<metadata> Svg Vector Icons : http://www.onlinewebfonts.com/icon </metadata>
<g><g transform="translate(0.000000,511.000000) scale(0.100000,-0.100000)"><path d="M2432.5,4796.1c-638.1-72.8-1079.2-698.1-931.5-1321.2c89.9-381.2,374.7-687.4,743.1-798.7c119.9-36.4,188.4-45,370.5-36.4l222.7,6.4l428.3-777.3l428.3-779.5l-137.1-137c-481.8-473.2-642.4-1154.2-426.1-1792.3c27.8-83.5,79.2-201.3,115.6-263.4l64.2-113.5l-760.2-687.4l-758-685.2l-70.7,42.8c-209.8,130.6-591,167-858.7,85.7c-355.5-109.2-644.5-421.9-732.3-794.4c-40.7-173.5-40.7-314.8,0-488.3c164.9-700.2,931.5-1045,1584.6-713.1c246.3,124.2,477.5,434.7,546,730.2c36.4,154.2,17.1,428.3-42.8,599.6l-47.1,134.9l60,60c34.3,32.1,372.6,340.5,753.7,683.1l689.5,623.2l145.6-94.2c308.4-199.1,578.2-278.4,957.2-276.2c214.1,0,289.1,10.7,445.4,57.8c104.9,30,237.7,81.4,295.5,111.4c59.9,30,115.6,51.4,126.3,47.1c17.1-6.4,599.6-700.2,599.6-715.2c0-6.4-30-66.4-64.2-137c-374.7-740.9,139.2-1588.9,963.6-1588.9c800.9,0,1325.5,830.8,978.6,1552.5c-130.6,274.1-370.4,483.9-651,571.7c-192.7,60-471.1,57.8-657.4-2.1l-139.2-47.1l-51.4,62.1c-316.9,376.9-550.3,661.7-550.3,674.5c0,6.4,32.1,55.7,70.7,107.1c152.1,201.3,246.3,413.3,306.2,674.5c34.3,154.2,34.3,353.3,2.1,747.3l-4.3,62.1L7201.3,522l753.8,342.6L8081.4,749c430.4-398.3,1077.1-383.3,1496.8,36.4c246.3,244.1,359.7,578.2,310.5,912.2c-79.2,539.6-537.5,940.1-1072.8,937.9c-316.9-2.1-552.5-98.5-770.9-319.1c-224.8-224.8-329.8-484-321.2-792.3l4.3-160.6l-747.3-338.3c-411.2-186.3-758.1-336.2-770.9-334c-12.9,4.3-66.4,60-119.9,124.2c-218.4,272-558.9,488.2-905.8,580.3c-235.6,62.1-597.4,62.1-833,0c-94.2-25.7-171.3-42.8-175.6-40.7c-2.2,4.3-197,357.6-432.6,785.9l-430.4,779.5l83.5,98.5C4025.7,3768.3,3406.8,4909.6,2432.5,4796.1z M4762.3,886l-6.4-167l-139.2-15c-406.9-45-766.6-400.4-839.4-826.6l-25.7-154.2h-156.3h-156.3v81.4c0,126.3,77.1,400.4,152.1,541.8c85.7,158.5,284.8,376.9,430.4,473.2c197,128.5,481.8,224.8,676.7,229.1l70.7,2.1L4762.3,886z"/></g></g>
</svg>